#!OML:ASF I:\Actors\actors\Patient Classification 2\Patient 1\Session 1\actor1.ASF
:FULLY-SPECIFIED
:DEGREES
581
root -0.907258 18.6493 5.07694 -0.869283 1.87211 -2.50325
lowerback 2.84315 0.832602 3.43405
upperback -1.70737 1.28127 0.726979
thorax -3.29507 0.569534 -1.2477
lowerneck -10.4471 -2.99044 -2.04728
upperneck 22.9271 -4.14588 1.57381
head 8.968 -1.95488 0.433512
rclavicle 2.01114e-014 -1.73937e-015
rhumerus -61.545 -11.7131 -77.2253
rradius 44.3271
rwrist 8.37671
rhand -10.283 -46.1728
rfingers 7.12502
rthumb 15.7111 -75.555
lclavicle 2.01114e-014 -1.73937e-015
lhumerus -46.5014 6.07767 85.969
lradius 38.1919
lwrist -1.62309
lhand -12.6129 -22.8902
lfingers 7.12502
lthumb 13.4663 6.65447
rfemur 11.363 -10.8604 15.4344
rtibia -4.45278e-014
rfoot -12.0204 -2.54208
rtoes -6.25662
lfemur -1.44091 -7.91406 -11.6325
ltibia 21.8021
lfoot -21.7432 9.15684
ltoes -56.006
582
root -0.899949 18.6477 5.08442 -0.875432 1.64013 -2.56987
lowerback 2.70785 0.840314 3.41315
upperback -1.75314 1.28579 0.722802
thorax -3.2661 0.572216 -1.23854
lowerneck -10.2279 -2.90197 -1.72073
upperneck 22.6476 -4.02791 1.33195
head 8.81558 -1.90071 0.314897
rclavicle -1.963e-015 -1.14301e-015
rhumerus -61.286 -11.8574 -77.685
rradius 44.3122
rwrist 8.64893
rhand -10.4136 -45.9891
rfingers 7.12502
rthumb 15.5854 -75.3811
lclavicle -1.963e-015 -1.14301e-015
lhumerus -46.4351 7.08421 85.7496
lradius 37.5614
lwrist -1.96956
lhand -12.5963 -22.175
lfingers 7.12502
lthumb 13.4823 7.36859
rfemur 11.3469 -10.6296 15.5045
rtibia 2.70347e-014
rfoot -12.0191 -2.56073
rtoes -6.40563
lfemur -1.36284 -7.70078 -11.5757
ltibia 21.8248
lfoot -21.7945 9.10965
ltoes -55.9948
583
root -0.892893 18.6457 5.09093 -0.898944 1.37517 -2.65811
lowerback 2.57904 0.868672 3.45358
upperback -1.75496 1.31956 0.722578
thorax -3.1929 0.589327 -1.26077
lowerneck -10.2328 -2.85487 -1.69814
upperneck 22.575 -3.97086 1.35471
head 8.79057 -1.87037 0.325201
rclavicle 1.1368e-015 8.39865e-015
rhumerus -60.9262 -12.0401 -78.1247
rradius 44.3179
rwrist 8.83867
rhand -10.5067 -45.9813
rfingers 7.12502
rthumb 15.4957 -75.3803
lclavicle 1.1368e-015 8.39865e-015
lhumerus -46.3608 7.61967 85.7925
lradius 37.0183
lwrist -2.11505
lhand -12.4104 -21.9689
lfingers 7.12502
lthumb 13.6615 7.56273
rfemur 11.3396 -10.365 15.5979
rtibia -4.77083e-015
rfoot -12.0084 -2.60487
rtoes -6.61941
lfemur -1.26427 -7.5515 -11.5111
ltibia 21.8542
lfoot -21.849 9.13875
ltoes -55.9612
584
root -0.887482 18.6438 5.09585 -0.933656 1.12246 -2.78415
lowerback 2.50659 0.896701 3.52575
upperback -1.75576 1.35627 0.713588
thorax -3.14942 0.606631 -1.31084
lowerneck -10.1907 -2.81355 -1.35999
upperneck 22.436 -3.92758 1.13877
head 8.72219 -1.84544 0.20197
rclavicle -2.10619e-014 -3.08613e-014
rhumerus -60.5902 -12.2628 -78.6035
rradius 44.4338
rwrist 9.03039
rhand -10.1936 -46.2881
rfingers 7.12502
rthumb 15.7972 -75.6635
lclavicle -2.10619e-014 -3.08613e-014
lhumerus -46.3367 7.72474 86.0484
lradius 36.7129
lwrist -2.17419
lhand -12.0859 -21.9091
lfingers 7.12502
lthumb 13.9742 7.60127
rfemur 11.3436 -10.1132 15.7361
rtibia 1.43125e-014
rfoot -12.0085 -2.62966
rtoes -6.53552
lfemur -1.15147 -7.58781 -11.4283
ltibia 21.8856
lfoot -21.9941 9.27212
ltoes -55.7962
585
root -0.882461 18.6421 5.09965 -1.00663 0.924359 -2.90044
lowerback 2.48703 0.898316 3.56582
upperback -1.75211 1.35861 0.701649
thorax -3.1334 0.607087 -1.34523
lowerneck -10.1171 -2.74788 -0.968676
upperneck 22.2924 -3.86162 0.926678
head 8.64551 -1.80534 0.0743299
rclavicle -1.77159e-015 -7.69048e-015
rhumerus -60.29 -12.5002 -79.0845
rradius 44.6238
rwrist 9.27004
rhand -9.46203 -46.8884
rfingers 7.12502
rthumb 16.5017 -76.2067
lclavicle -1.77159e-015 -7.69048e-015
lhumerus -46.3561 7.75151 86.2315
lradius 36.4874
lwrist -2.84949
lhand -11.3287 -22.1499
lfingers 7.12502
lthumb 14.7038 7.30863
rfemur 11.4015 -9.91289 15.8511
rtibia 1.74931e-014
rfoot -11.9947 -2.6212
rtoes -6.20348
lfemur -1.01545 -7.68009 -11.3678
ltibia 21.9271
lfoot -22.145 9.44574
ltoes -55.6433
586
root -0.877138 18.6405 5.10177 -1.11228 0.749803 -2.95444
lowerback 2.51704 0.903319 3.54761
upperback -1.72773 1.36496 0.692083
thorax -3.12496 0.610942 -1.34553
lowerneck -10.1557 -2.69326 -0.822805
upperneck 22.2548 -3.79668 0.854668
head 8.6345 -1.77027 0.0321931
rclavicle 3.97958e-016 -8.87698e-015
rhumerus -59.9299 -12.7103 -79.5425
rradius 44.7627
rwrist 9.39107
rhand -9.20298 -47.285
rfingers 7.12502
rthumb 16.751 -76.5823
lclavicle 3.97958e-016 -8.87698e-015
lhumerus -46.3054 7.69291 86.4464
lradius 36.2401
lwrist -3.5416
lhand -10.5713 -22.8067
lfingers 7.12502
lthumb 15.4335 6.59712
rfemur 11.4959 -9.73162 15.8843
rtibia -2.06736e-014
rfoot -11.9773 -2.59469
rtoes -5.93483
lfemur -0.872567 -7.66345 -11.3648
ltibia 21.9862
lfoot -22.2148 9.57341
ltoes -55.6121
